# AST/ASF file generated using VICON BodyLanguage
# -----------------------------------------------
:version 1.10
:name VICON
:units
  mass 1.0
  length 0.45
  angle deg
:documentation
   .ast/.asf automatically generated from VICON data using
   VICON BodyBuilder and BodyLanguage model FoxedUp or BRILLIANT.MOD
:root
   order TX TY TZ RX RY RZ
   axis XYZ
   position 0 0 0  
   orientation 0 -0 0 
:bonedata
  begin
     id 1 
     name lhipjoint
     direction 0.515797 -0.759363 0.396637 
     length 2.47888 
     axis 0 -0 0  XYZ
  end
  begin
     id 2 
     name lfemur
     direction 0.34202 -0.939693 0  
     length 6.81885  
     axis 0 -0 20  XYZ
    dof rx ry rz
    limits (-160.0 20.0)
           (-70.0 70.0)
           (-60.0 70.0)
  end
  begin
     id 3 
     name ltibia
     direction 0.342037 -0.939687 0   
     length 7.89258   
     axis 0 -0 20   XYZ
    dof rx
    limits (-10.0 170.0)
  end
  begin
     id 4 
     name lfoot
     direction 0.173497 -0.476678 0.861787   
     length 2.51543   
     axis -90 -1.13533e-015 20   XYZ
    dof rx rz
    limits (-45.0 90.0)
           (-70.0 20.0)
  end
  begin
     id 5 
     name ltoes
     direction 1.53564e-011 -4.21897e-011 1   
     length 1.21388   
     axis -90 -1.13533e-015 20   XYZ
    dof rx
    limits (-90.0 20.0)
  end
  begin
     id 6 
     name rhipjoint
     direction -0.489454 -0.772941 0.403729   
     length 2.43534  
     axis 0 -0 0  XYZ 
  end
  begin
     id 7 
     name rfemur
     direction -0.34202 -0.939693 0   
     length 7.10357   
     axis 0 -0 -20   XYZ
    dof rx ry rz
    limits (-160.0 20.0)
           (-70.0 70.0)
           (-70.0 60.0)
  end
  begin
     id 8 
     name rtibia
     direction -0.34202 -0.939693 0   
     length 9.16127   
     axis 0 -0 -20   XYZ
    dof rx
    limits (-10.0 170.0)
 end
 begin
     id 9 
     name rfoot
     direction -0.270974 -0.748671 0.605033   
     length 1.74894  
     axis -90 1.13533e-015 -20   XYZ
    dof rx rz
    limits (-45.0 90.0)
           (-20.0 70.0)
  end
  begin
     id 10 
     name rtoes
     direction -1.53557e-011 -4.21759e-011 1   
     length 0.787585   
     axis -90 1.13533e-015 -20   XYZ
    dof rx
    limits (-90.0 20.0)
  end
  begin
     id 11 
     name lowerback
     direction -0.0140249 0.999561 0.0260968   
     length 2.16963   
     axis 0 -0 0   XYZ
    dof rx ry rz
    limits (-20.0 45.0)
           (-30.0 30.0)
           (-30.0 30.0)
  end
  begin
     id 12 
     name upperback
     direction 0.00860018 0.999959 -0.002711   
     length 2.1726   
     axis 0 -0 0   XYZ
    dof rx ry rz
    limits (-20.0 45.0)
           (-30.0 30.0)
           (-30.0 30.0)
  end
  begin
     id 13 
     name thorax
     direction 0.015211 0.999782 -0.0143191   
     length 2.17061   
     axis 0 -0 0   XYZ
    dof rx ry rz
    limits (-20.0 45.0)
           (-30.0 30.0)
           (-30.0 30.0)
  end
  begin
     id 14 
     name lowerneck
     direction -0.0140143 0.999447 0.030145   
     length 2.26749   
     axis 0 -0 0   XYZ
    dof rx ry rz
    limits (-20.0 45.0)
           (-30.0 30.0)
           (-30.0 30.0)
  end
  begin
     id 15 
     name upperneck
     direction 0.118062 0.961438 -0.248392   
     length 2.22728   
     axis 0 -0 0   XYZ
    dof rx ry rz
    limits (-20.0 45.0)
           (-30.0 30.0)
           (-30.0 30.0)
  end
  begin
     id 16
     name head
     direction 0.0431885 0.9954 -0.085514  
     length 2.28786  
     axis 0 -0 0   XYZ
    dof rx ry rz
    limits (-20.0 45.0)
           (-30.0 30.0)
           (-30.0 30.0)
  end
  begin
     id 17 
     name lclavicle
     direction 0.912126 0.409548 0.0172323  
     length 4.31571  
     axis 0 -0 0   XYZ
    dof ry rz
    limits (-20.0 10.0)
           (0.0 20.0)
  end
  begin
     id 18 
     name lhumerus
     direction 1 -4.48977e-011 1.93091e-027   
     length 5.13658   
     axis 180 -30 -90   XYZ
    dof rx ry rz
    limits (-60.0 90.0)
           (-90.0 90.0)
           (-90.0 90.0)
  end
  begin
     id 19
     name lradius
     direction 1 -4.48916e-011 6.84018e-027   
     length 3.22473   
     axis 180 -30 -90   XYZ
    dof rx
    limits (-10.0 170.0)
  end
  begin
     id 20
     name lwrist
     direction 1 -4.48987e-011 7.01981e-027   
     length 1.61236   
     axis -4.37994e-015 90 90   XYZ
    dof ry
    limits (-180.0 0.0)
 end
  begin
     id 21 
     name lhand
     direction 1 -4.49037e-011 1.40335e-026   
     length 0.936406   
     axis -8.96029e-015 90 90   XYZ
    dof rx rz
    limits (-90.0 90.0)
           (-45.0 45.0)
  end
  begin
     id 22 
     name lfingers
     direction 1 -4.48886e-011 2.8104e-026   
     length 0.754955   
     axis -1.79203e-014 90 90   XYZ
    dof rx
    limits (0.0 90.0)
  end
  begin
     id 23
     name lthumb
     direction 0.707107 -6.34937e-011 0.707107   
     length 1.08397   
     axis -90 45 -4.48555e-014   XYZ
    dof rx rz
    limits (-45.0 45.0)
           (-45.0 45.0)
  end
  begin
     id 24 
     name rclavicle
     direction -0.947962 0.317997 0.0156638   
     length 4.86918  
     axis 0 -0 0   XYZ 
    dof ry rz
    limits (-10.0 20.0)
           (-20.0 0.0)
  end
  begin
     id 25 
     name rhumerus
     direction -1 -4.48951e-011 2.80534e-018  
     length 5.60911   
     axis 180 30 90   XYZ
    dof rx ry rz
    limits (-90.0 60.0)
           (-90.0 90.0)
           (-90.0 90.0)
  end
  begin
     id 26 
     name rradius
     direction -1 -4.4898e-011 2.11315e-027   
     length 3.38704   
     axis 180 30 90   XYZ
    dof rx
    limits (-10.0 170.0)
  end
  begin
     id 27 
     name rwrist
     direction -1 -4.48933e-011 7.02314e-027   
     length 1.69352   
     axis -4.37994e-015 -90 -90   XYZ
    dof ry
    limits (-180.0 0.0)
  end
  begin
     id 28
     name rhand
     direction -1 -4.48937e-011 1.40458e-026   
     length 0.755878   
     axis -8.96029e-015 -90 -90   XYZ
    dof rx rz
    limits (-90.0 90.0)
           (-45.0 45.0)
  end
  begin
     id 29
     name rfingers
     direction -1 -4.4901e-011 2.80737e-026   
     length 0.609409   
     axis -1.79203e-014 -90 -90   XYZ
    dof rx
    limits (0.0 90.0)
  end
  begin
     id 30
     name rthumb
     direction -0.707107 -6.34968e-011 0.707107   
     length 0.874992   
     axis -90 -45 4.48555e-014   XYZ
    dof rx rz
    limits (-45.0 45.0)
           (-45.0 45.0)
  end
:hierarchy
  begin
    root lhipjoint rhipjoint lowerback
    lhipjoint lfemur
    lfemur ltibia
    ltibia lfoot
    lfoot ltoes
    rhipjoint rfemur
    rfemur rtibia
    rtibia rfoot
    rfoot rtoes
    lowerback upperback
    upperback thorax
    thorax lowerneck lclavicle rclavicle
    lowerneck upperneck
    upperneck head
    lclavicle lhumerus
    lhumerus lradius
    lradius lwrist
    lwrist lhand lthumb
    lhand lfingers
    rclavicle rhumerus
    rhumerus rradius
    rradius rwrist
    rwrist rhand rthumb
    rhand rfingers
  end

#!OML:ASF C:\ViconDB\ViconDB\414\Spring2016\041811\Spring2016.ASF
:FULLY-SPECIFIED
:DEGREES
122
root 12.8819 18.1038 11.6769 -178.115 -6.17904 -178.129
lowerback -5.32557 0.694684 -1.80138
upperback 0.251316 1.01566 0.524831
thorax 3.20456 0.468009 1.6328
lowerneck -13.1888 2.87736 -3.77715
upperneck 26.2066 0.329689 11.4799
head 10.4929 0.528239 4.72582
rclavicle 5.97752e-015 3.37934e-015
rhumerus -48.8581 -23.8889 -72.642
rradius 37.5875
rwrist 40.2487
rhand -33.0953 -13.4533
rfingers 7.12502
rthumb -6.3062 -43.3394
lclavicle 5.97752e-015 3.37934e-015
lhumerus -39.6719 3.09997 82.6885
lradius 26.7136
lwrist -32.5044
lhand -28.0645 15.609
lfingers 7.12502
lthumb -1.44817 45.5838
rfemur 165.001 56.701 -170.673
rtibia 29.4083
rfoot -64.1586 -43.8709
rtoes -1.19271e-014
lfemur -6.60278 -11.2661 -13.2997
ltibia 25.7237
lfoot -23.4693 3.75743
ltoes -2.17669e-014
123
root 12.879 18.102 11.6657 -178.139 -6.12155 -178.186
lowerback -5.38608 0.711212 -1.80759
upperback 0.243083 1.04085 0.465514
thorax 3.23001 0.480575 1.57803
lowerneck -13.1579 2.8588 -3.65928
upperneck 26.1828 0.295316 11.4031
head 10.4837 0.514142 4.67084
rclavicle -1.02436e-014 7.15625e-015
rhumerus -48.8761 -23.9362 -72.8904
rradius 37.6072
rwrist 39.8904
rhand -32.954 -13.4298
rfingers 7.12502
rthumb -6.16976 -43.32
lclavicle -1.02436e-014 7.15625e-015
lhumerus -39.7732 3.08207 82.973
lradius 26.8036
lwrist -32.3376
lhand -27.8835 15.4987
lfingers 7.12502
lthumb -1.27337 45.4747
rfemur 164.875 56.9373 -170.814
rtibia 29.4623
rfoot -64.5263 -43.8339
rtoes -1.59028e-015
lfemur -6.48171 -11.2762 -13.3917
ltibia 25.6783
lfoot -23.5124 3.81433
ltoes 6.99722e-014
124
root 12.8771 18.1016 11.654 -178.118 -6.04879 -178.257
lowerback -5.47268 0.71547 -1.85388
upperback 0.20968 1.05103 0.434858
thorax 3.24352 0.484837 1.57431
lowerneck -13.1481 2.85084 -3.68252
upperneck 26.2047 0.281204 11.4108
head 10.4906 0.504203 4.67653
rclavicle -9.54089e-015 -4.17448e-015
rhumerus -48.9513 -24.1115 -72.9484
rradius 37.5807
rwrist 40.3063
rhand -32.9515 -13.3192
rfingers 7.12502
rthumb -6.16742 -43.2095
lclavicle -9.54089e-015 -4.17448e-015
lhumerus -39.9405 3.14123 83.2549
lradius 26.9095
lwrist -32.3825
lhand -27.7916 15.4264
lfingers 7.12502
lthumb -1.18465 45.4028
rfemur 164.847 57.2154 -170.898
rtibia 29.5018
rfoot -64.9692 -43.7796
rtoes 7.79236e-014
lfemur -6.44963 -11.3102 -13.5041
ltibia 25.641
lfoot -23.5193 3.98916
ltoes 8.64713e-015
125
root 12.8765 18.1017 11.6453 -178.067 -5.99609 -178.299
lowerback -5.55896 0.721174 -1.87459
upperback 0.168057 1.06023 0.434156
thorax 3.24826 0.488864 1.58696
lowerneck -13.0869 2.82179 -3.76855
upperneck 26.1204 0.280279 11.4033
head 10.4462 0.495437 4.68375
rclavicle 8.38623e-015 4.17448e-015
rhumerus -48.9788 -24.1264 -73.0873
rradius 37.6056
rwrist 40.2316
rhand -32.9874 -13.3791
rfingers 7.12502
rthumb -6.20204 -43.2683
lclavicle 8.38623e-015 4.17448e-015
lhumerus -40.057 3.35635 83.5768
lradius 26.9101
lwrist -32.5959
lhand -27.8873 15.1004
lfingers 7.12502
lthumb -1.27703 45.0764
rfemur 164.892 57.3853 -170.886
rtibia 29.5386
rfoot -65.252 -43.7123
rtoes 1.05753e-013
lfemur -6.43882 -11.2846 -13.5531
ltibia 25.6093
lfoot -23.5366 4.01123
ltoes -2.10712e-014
126
root 12.8781 18.1014 11.6397 -178.035 -5.9521 -178.268
lowerback -5.59724 0.711901 -1.84302
upperback 0.127481 1.04625 0.405009
thorax 3.22949 0.482782 1.53823
lowerneck -13.0994 2.83105 -3.68992
upperneck 26.143 0.275504 11.3734
head 10.4589 0.496347 4.65948
rclavicle -6.77664e-015 -1.17283e-014
rhumerus -48.955 -24.0805 -73.4304
rradius 37.6312
rwrist 40.1773
rhand -32.9918 -13.6486
rfingers 7.12502
rthumb -6.20632 -43.5377
lclavicle -6.77664e-015 -1.17283e-014
lhumerus -40.2152 3.20924 83.928
lradius 27.0918
lwrist -32.3694
lhand -27.8994 15.3983
lfingers 7.12502
lthumb -1.28872 45.3742
rfemur 164.938 57.4103 -170.781
rtibia 29.5748
rfoot -65.3376 -43.6928
rtoes 3.26007e-014
lfemur -6.40103 -11.1808 -13.4875
ltibia 25.5799
lfoot -23.5999 3.8842
ltoes 2.0773e-014
127
root 12.8801 18.1016 11.6329 -178.041 -5.90001 -178.247
lowerback -5.61211 0.718487 -1.82953
upperback 0.0991804 1.05394 0.394095
thorax 3.20873 0.487089 1.51996
lowerneck -13.036 2.82059 -3.59594
upperneck 26.0944 0.265773 11.2887
head 10.4313 0.490236 4.60699
rclavicle 1.07103e-014 -1.76918e-014
rhumerus -49.0084 -24.1747 -73.58
rradius 37.6743
rwrist 40.1846
rhand -32.9388 -13.3831
rfingers 7.12502
rthumb -6.1551 -43.2737
lclavicle 1.07103e-014 -1.76918e-014
lhumerus -40.3421 3.39037 84.0798
lradius 27.1544
lwrist -32.4892
lhand -27.7787 14.9306
lfingers 7.12502
lthumb -1.17222 44.9071
rfemur 164.909 57.5421 -170.746
rtibia 29.6156
rfoot -65.6008 -43.6557
rtoes -2.46493e-014
lfemur -6.38957 -11.0817 -13.4563
ltibia 25.548
lfoot -23.5458 3.91674
ltoes -8.54774e-015
128
root 12.8803 18.0995 11.6245 -178.036 -5.82569 -178.271
lowerback -5.67015 0.731544 -1.83663
upperback 0.0874471 1.07328 0.364989
thorax 3.22886 0.496455 1.49636
lowerneck -13.0147 2.79056 -3.59786
upperneck 26.0635 0.230728 11.275
head 10.4191 0.471853 4.59625
rclavicle -9.95787e-015 -3.37934e-015
rhumerus -49.0072 -24.2596 -73.769
rradius 37.7185
rwrist 40.1302
rhand -32.9945 -13.3867
rfingers 7.12502
rthumb -6.20887 -43.2757
lclavicle -9.95787e-015 -3.37934e-015
lhumerus -40.5234 3.20524 84.4418
lradius 27.3918
lwrist -32.3525
lhand -27.6212 15.0718
lfingers 7.12502
lthumb -1.02004 45.0491
rfemur 164.873 57.7703 -170.768
rtibia 29.6777
rfoot -65.9862 -43.6208
rtoes -4.21423e-014
lfemur -6.29255 -11.0287 -13.4805
ltibia 25.5047
lfoot -23.5861 3.86832
ltoes 2.93207e-014
129
root 12.8803 18.0975 11.616 -178.061 -5.7499 -178.291
lowerback -5.70292 0.743313 -1.86332
upperback 0.088663 1.09116 0.367781
thorax 3.2473 0.504617 1.51628
lowerneck -13.1022 2.78704 -3.74605
upperneck 26.1444 0.219045 11.3909
head 10.4644 0.465343 4.66901
rclavicle -1.01629e-014 6.36111e-015
rhumerus -49.0061 -24.2707 -73.9444
rradius 37.7884
rwrist 40.1691
rhand -32.9797 -13.4592
rfingers 7.12502
rthumb -6.19461 -43.3487
lclavicle -1.01629e-014 6.36111e-015
lhumerus -40.6974 3.12133 84.7324
lradius 27.6149
lwrist -32.1494
lhand -27.5235 14.8961
lfingers 7.12502
lthumb -0.925654 44.8738
rfemur 164.764 58.0005 -170.834
rtibia 29.7669
rfoot -66.3998 -43.6081
rtoes -7.15625e-015
lfemur -6.19273 -10.9712 -13.5158
ltibia 25.4739
lfoot -23.6212 3.86785
ltoes -2.08724e-015
130
root 12.8859 18.0971 11.6066 -178.091 -5.74191 -178.28
lowerback -5.74599 0.722499 -1.94185
upperback 0.0992239 1.06909 0.384765
thorax 3.28156 0.491743 1.57694
lowerneck -13.1237 2.77331 -3.74316
upperneck 26.1515 0.205111 11.3685
head 10.4728 0.457425 4.6595
rclavicle 1.76352e-014 -1.21259e-014
rhumerus -48.9583 -24.2109 -74.2116
rradius 37.8465
rwrist 40.0363
rhand -32.9831 -13.4071
rfingers 7.12502
rthumb -6.1979 -43.2965
lclavicle 1.76352e-014 -1.21259e-014
lhumerus -40.851 3.03918 85.047
lradius 27.8682
lwrist -32.0902
lhand -27.3635 15.0632
lfingers 7.12502
lthumb -0.771149 45.0416
rfemur 164.63 58.3139 -170.877
rtibia 29.8453
rfoot -66.967 -43.32
rtoes 5.725e-014
lfemur -6.12343 -10.8211 -13.4632
ltibia 25.4488
lfoot -23.669 3.7043
ltoes -3.8763e-015
131
root 12.8764 18.0922 11.5933 -177.986 -5.61492 -178.55
lowerback -5.97427 0.736031 -2.07345
upperback 0.100865 1.1041 0.258754
thorax 3.41012 0.505763 1.52772
lowerneck -13.1098 2.76393 -3.69489
upperneck 26.112 0.210218 11.2916
head 10.4562 0.457342 4.6215
rclavicle -2.09035e-015 1.51076e-014
rhumerus -48.9026 -24.1697 -74.4893
rradius 37.8992
rwrist 39.9729
rhand -33.0707 -13.5923
rfingers 7.12502
rthumb -6.28248 -43.4791
lclavicle -2.09035e-015 1.51076e-014
lhumerus -40.9347 2.92996 85.2624
lradius 27.9904
lwrist -32.2256
lhand -27.1396 14.9258
lfingers 7.12502
lthumb -0.554953 44.9048
rfemur 164.725 59.0955 -171.095
rtibia 29.9262
rfoot -68.1131 -43.2535
rtoes -7.95139e-015
lfemur -6.13413 -10.7002 -13.8243
ltibia 25.4632
lfoot -23.6831 3.75318
ltoes 2.28602e-015
132
root 12.8782 18.0921 11.5946 -178.033 -5.53401 -178.432
lowerback -5.88022 0.754686 -1.9543
upperback 0.091931 1.11802 0.284856
thorax 3.34916 0.515485 1.4872
lowerneck -13.1287 2.74761 -3.71042
upperneck 26.1083 0.200097 11.2699
head 10.4595 0.450057 4.61548
rclavicle 2.58863e-014 -7.95139e-016
rhumerus -48.8563 -24.1902 -74.6879
rradius 37.9117
rwrist 40.0927
rhand -33.1308 -13.4689
rfingers 7.12502
rthumb -6.34048 -43.354
lclavicle 2.58863e-014 -7.95139e-016
lhumerus -41.0174 2.97484 85.5158
lradius 28.0769
lwrist -31.9546
lhand -27.3046 14.8029
lfingers 7.12502
lthumb -0.714302 44.7815
rfemur 164.698 58.7902 -170.957
rtibia 29.9637
rfoot -67.8489 -43.3237
rtoes -2.70347e-014
lfemur -6.12855 -10.4286 -13.6567
ltibia 25.4815
lfoot -23.5868 3.57027
ltoes -1.81888e-014
133
root 12.8729 18.0874 11.5863 -177.996 -5.47688 -178.556
lowerback -5.98336 0.747765 -2.0061
upperback 0.0957346 1.11622 0.221673
thorax 3.41139 0.513157 1.45278
lowerneck -13.177 2.75922 -3.70204
upperneck 26.1539 0.208271 11.269
head 10.4852 0.45488 4.61774
rclavicle -2.14998e-014 -1.23246e-014
rhumerus -48.7794 -24.1011 -74.9759
rradius 38.008
rwrist 39.7078
rhand -33.064 -13.3101
rfingers 7.12502
rthumb -6.27596 -43.1971
lclavicle -2.14998e-014 -1.23246e-014
lhumerus -41.0935 2.90267 85.7881
lradius 28.2961
lwrist -31.8085
lhand -27.1441 15.229
lfingers 7.12502
lthumb -0.55927 45.208
rfemur 164.684 59.2416 -171.102
rtibia 29.9903
rfoot -68.4624 -43.4503
rtoes 5.80451e-014
lfemur -6.15646 -10.1247 -13.7914
ltibia 25.5288
lfoot -23.565 3.35317
ltoes 2.11706e-014
134
root 12.8822 18.0877 11.5865 -178.113 -5.33163 -178.404
lowerback -5.84431 0.798892 -1.96032
upperback 0.11535 1.17819 0.262477
thorax 3.35117 0.545538 1.47222
lowerneck -13.1932 2.74227 -3.66635
upperneck 26.1367 0.181698 11.2565
head 10.4853 0.445718 4.60346
rclavicle -1.20195e-014 -3.18055e-015
rhumerus -48.6953 -24.171 -75.2023
rradius 37.9889
rwrist 39.7844
rhand -33.1554 -13.5203
rfingers 7.12502
rthumb -6.36419 -43.4047
lclavicle -1.20195e-014 -3.18055e-015
lhumerus -41.1185 2.91177 85.9553
lradius 28.3296
lwrist -31.6133
lhand -27.1772 15.0171
lfingers 7.12502
lthumb -0.591202 44.996
rfemur 164.546 58.623 -171.01
rtibia 29.984
rfoot -67.868 -43.5239
rtoes 3.49861e-014
lfemur -6.06052 -9.69047 -13.5504
ltibia 25.5644
lfoot -23.5108 3.03898
ltoes 1.91827e-014
